<svg width="111" height="19" viewBox="0 0 111 19" fill="none" xmlns="http://www.w3.org/2000/svg">
<path d="M16.1648 6.86932H11.9034C11.8466 6.43182 11.7301 6.03693 11.554 5.68466C11.3778 5.33239 11.1449 5.03125 10.8551 4.78125C10.5653 4.53125 10.2216 4.34091 9.82386 4.21023C9.43182 4.07386 8.99716 4.00568 8.51989 4.00568C7.6733 4.00568 6.94318 4.21307 6.32955 4.62784C5.72159 5.04261 5.25284 5.64205 4.9233 6.42614C4.59943 7.21023 4.4375 8.15909 4.4375 9.27273C4.4375 10.4318 4.60227 11.4034 4.93182 12.1875C5.26705 12.9659 5.7358 13.554 6.33807 13.9517C6.94602 14.3437 7.66477 14.5398 8.49432 14.5398C8.96023 14.5398 9.38352 14.4801 9.7642 14.3608C10.1506 14.2415 10.4886 14.0682 10.7784 13.8409C11.0739 13.608 11.3153 13.3267 11.5028 12.9972C11.696 12.6619 11.8295 12.2841 11.9034 11.8636L16.1648 11.8892C16.0909 12.6619 15.8665 13.4233 15.4915 14.1733C15.1222 14.9233 14.6136 15.608 13.9659 16.2273C13.3182 16.8409 12.5284 17.3295 11.5966 17.6932C10.6705 18.0568 9.60795 18.2386 8.40909 18.2386C6.82955 18.2386 5.41477 17.892 4.16477 17.1989C2.92045 16.5 1.9375 15.483 1.21591 14.1477C0.494318 12.8125 0.133523 11.1875 0.133523 9.27273C0.133523 7.35227 0.5 5.72443 1.23295 4.3892C1.96591 3.05398 2.95739 2.03977 4.20739 1.34659C5.45739 0.653409 6.85795 0.306818 8.40909 0.306818C9.46591 0.306818 10.4432 0.454545 11.3409 0.75C12.2386 1.03977 13.0284 1.46591 13.7102 2.02841C14.392 2.58523 14.946 3.26989 15.3722 4.08239C15.7983 4.89489 16.0625 5.82386 16.1648 6.86932ZM22.7976 0.545454V18H18.5788V0.545454H22.7976ZM41.2898 6.86932H37.0284C36.9716 6.43182 36.8551 6.03693 36.679 5.68466C36.5028 5.33239 36.2699 5.03125 35.9801 4.78125C35.6903 4.53125 35.3466 4.34091 34.9489 4.21023C34.5568 4.07386 34.1222 4.00568 33.6449 4.00568C32.7983 4.00568 32.0682 4.21307 31.4545 4.62784C30.8466 5.04261 30.3778 5.64205 30.0483 6.42614C29.7244 7.21023 29.5625 8.15909 29.5625 9.27273C29.5625 10.4318 29.7273 11.4034 30.0568 12.1875C30.392 12.9659 30.8608 13.554 31.4631 13.9517C32.071 14.3437 32.7898 14.5398 33.6193 14.5398C34.0852 14.5398 34.5085 14.4801 34.8892 14.3608C35.2756 14.2415 35.6136 14.0682 35.9034 13.8409C36.1989 13.608 36.4403 13.3267 36.6278 12.9972C36.821 12.6619 36.9545 12.2841 37.0284 11.8636L41.2898 11.8892C41.2159 12.6619 40.9915 13.4233 40.6165 14.1733C40.2472 14.9233 39.7386 15.608 39.0909 16.2273C38.4432 16.8409 37.6534 17.3295 36.7216 17.6932C35.7955 18.0568 34.733 18.2386 33.5341 18.2386C31.9545 18.2386 30.5398 17.892 29.2898 17.1989C28.0455 16.5 27.0625 15.483 26.3409 14.1477C25.6193 12.8125 25.2585 11.1875 25.2585 9.27273C25.2585 7.35227 25.625 5.72443 26.358 4.3892C27.0909 3.05398 28.0824 2.03977 29.3324 1.34659C30.5824 0.653409 31.983 0.306818 33.5341 0.306818C34.5909 0.306818 35.5682 0.454545 36.4659 0.75C37.3636 1.03977 38.1534 1.46591 38.8352 2.02841C39.517 2.58523 40.071 3.26989 40.4972 4.08239C40.9233 4.89489 41.1875 5.82386 41.2898 6.86932ZM43.7038 18V0.545454H47.9226V14.5739H55.1839V18H43.7038ZM61.5866 0.545454V18H57.3679V0.545454H61.5866ZM73.6697 5.77841C73.6129 5.15341 73.3601 4.66761 72.9112 4.32102C72.468 3.96875 71.8345 3.79261 71.0107 3.79261C70.4652 3.79261 70.0107 3.86364 69.647 4.00568C69.2834 4.14773 69.0107 4.34375 68.8288 4.59375C68.647 4.83807 68.5533 5.11932 68.5476 5.4375C68.5362 5.69886 68.5874 5.92898 68.701 6.12784C68.8203 6.3267 68.9908 6.50284 69.2124 6.65625C69.4396 6.80398 69.7124 6.93466 70.0305 7.0483C70.3487 7.16193 70.7067 7.26136 71.1044 7.34659L72.6044 7.6875C73.468 7.875 74.2294 8.125 74.8885 8.4375C75.5533 8.75 76.1101 9.12216 76.5589 9.55398C77.0135 9.9858 77.3572 10.483 77.5902 11.0455C77.8232 11.608 77.9425 12.2386 77.9482 12.9375C77.9425 14.0398 77.6641 14.9858 77.1129 15.7756C76.5618 16.5653 75.7692 17.1705 74.7351 17.5909C73.7067 18.0114 72.4652 18.2216 71.0107 18.2216C69.5504 18.2216 68.2777 18.0028 67.1925 17.5653C66.1072 17.1278 65.2635 16.4631 64.6612 15.571C64.0589 14.679 63.7493 13.5511 63.7322 12.1875H67.772C67.8061 12.75 67.9567 13.2188 68.2237 13.5938C68.4908 13.9688 68.8572 14.2528 69.3232 14.446C69.7947 14.6392 70.3402 14.7358 70.9595 14.7358C71.5277 14.7358 72.0107 14.6591 72.4084 14.5057C72.8118 14.3523 73.1214 14.1392 73.3374 13.8665C73.5533 13.5937 73.6641 13.2812 73.6697 12.929C73.6641 12.5994 73.5618 12.3182 73.3629 12.0852C73.1641 11.8466 72.8572 11.642 72.4425 11.4716C72.0334 11.2955 71.5107 11.1335 70.8743 10.9858L69.0504 10.5597C67.5391 10.2131 66.3487 9.65341 65.4794 8.88068C64.6101 8.10227 64.1783 7.05114 64.1839 5.72727C64.1783 4.64773 64.468 3.7017 65.0533 2.8892C65.6385 2.0767 66.4482 1.44318 67.4822 0.988636C68.5163 0.534091 69.6953 0.306818 71.0192 0.306818C72.3714 0.306818 73.5447 0.536931 74.5391 0.997158C75.5391 1.4517 76.3146 2.09091 76.8658 2.91477C77.4169 3.73864 77.6982 4.69318 77.7095 5.77841H73.6697ZM79.5078 3.97159V0.545454H94.2607V3.97159H88.968V18H84.8089V3.97159H79.5078ZM97.9169 18H93.3828L99.272 0.545454H104.888L110.778 18H106.244L102.144 4.94318H102.008L97.9169 18ZM97.3118 11.1307H106.789V14.3352H97.3118V11.1307Z" fill="#FF5A70"/>
</svg>
