<svg width="142" height="29" viewBox="0 0 142 29" fill="none" xmlns="http://www.w3.org/2000/svg">
<path d="M5.53977 5.54545V23H1.32102V5.54545H5.53977ZM14.6399 23H8.18821V5.54545H14.6314C16.4098 5.54545 17.9411 5.89489 19.2251 6.59375C20.5149 7.28693 21.5092 8.28693 22.2081 9.59375C22.907 10.8949 23.2564 12.4517 23.2564 14.2642C23.2564 16.0824 22.907 17.6449 22.2081 18.9517C21.5149 20.2585 20.5234 21.2614 19.2337 21.9602C17.9439 22.6534 16.4126 23 14.6399 23ZM12.407 19.4034H14.478C15.4553 19.4034 16.282 19.2386 16.9581 18.9091C17.6399 18.5739 18.1541 18.0312 18.5007 17.2812C18.853 16.5256 19.0291 15.5199 19.0291 14.2642C19.0291 13.0085 18.853 12.0085 18.5007 11.2642C18.1484 10.5142 17.6286 9.97443 16.9411 9.64489C16.2592 9.30966 15.4183 9.14204 14.4183 9.14204H12.407V19.4034Z" fill="black"/>
<path d="M46.1648 11.8693H41.9034C41.8466 11.4318 41.7301 11.0369 41.554 10.6847C41.3778 10.3324 41.1449 10.0312 40.8551 9.78125C40.5653 9.53125 40.2216 9.34091 39.8239 9.21023C39.4318 9.07386 38.9972 9.00568 38.5199 9.00568C37.6733 9.00568 36.9432 9.21307 36.3295 9.62784C35.7216 10.0426 35.2528 10.642 34.9233 11.4261C34.5994 12.2102 34.4375 13.1591 34.4375 14.2727C34.4375 15.4318 34.6023 16.4034 34.9318 17.1875C35.267 17.9659 35.7358 18.554 36.3381 18.9517C36.946 19.3437 37.6648 19.5398 38.4943 19.5398C38.9602 19.5398 39.3835 19.4801 39.7642 19.3608C40.1506 19.2415 40.4886 19.0682 40.7784 18.8409C41.0739 18.608 41.3153 18.3267 41.5028 17.9972C41.696 17.6619 41.8295 17.2841 41.9034 16.8636L46.1648 16.8892C46.0909 17.6619 45.8665 18.4233 45.4915 19.1733C45.1222 19.9233 44.6136 20.608 43.9659 21.2273C43.3182 21.8409 42.5284 22.3295 41.5966 22.6932C40.6705 23.0568 39.608 23.2386 38.4091 23.2386C36.8295 23.2386 35.4148 22.892 34.1648 22.1989C32.9205 21.5 31.9375 20.483 31.2159 19.1477C30.4943 17.8125 30.1335 16.1875 30.1335 14.2727C30.1335 12.3523 30.5 10.7244 31.233 9.3892C31.9659 8.05398 32.9574 7.03977 34.2074 6.34659C35.4574 5.65341 36.858 5.30682 38.4091 5.30682C39.4659 5.30682 40.4432 5.45455 41.3409 5.75C42.2386 6.03977 43.0284 6.46591 43.7102 7.02841C44.392 7.58523 44.946 8.26989 45.3722 9.08239C45.7983 9.89489 46.0625 10.8239 46.1648 11.8693ZM52.7976 5.54545V23H48.5788V5.54545H52.7976ZM71.2898 11.8693H67.0284C66.9716 11.4318 66.8551 11.0369 66.679 10.6847C66.5028 10.3324 66.2699 10.0312 65.9801 9.78125C65.6903 9.53125 65.3466 9.34091 64.9489 9.21023C64.5568 9.07386 64.1222 9.00568 63.6449 9.00568C62.7983 9.00568 62.0682 9.21307 61.4545 9.62784C60.8466 10.0426 60.3778 10.642 60.0483 11.4261C59.7244 12.2102 59.5625 13.1591 59.5625 14.2727C59.5625 15.4318 59.7273 16.4034 60.0568 17.1875C60.392 17.9659 60.8608 18.554 61.4631 18.9517C62.071 19.3437 62.7898 19.5398 63.6193 19.5398C64.0852 19.5398 64.5085 19.4801 64.8892 19.3608C65.2756 19.2415 65.6136 19.0682 65.9034 18.8409C66.1989 18.608 66.4403 18.3267 66.6278 17.9972C66.821 17.6619 66.9545 17.2841 67.0284 16.8636L71.2898 16.8892C71.2159 17.6619 70.9915 18.4233 70.6165 19.1733C70.2472 19.9233 69.7386 20.608 69.0909 21.2273C68.4432 21.8409 67.6534 22.3295 66.7216 22.6932C65.7955 23.0568 64.733 23.2386 63.5341 23.2386C61.9545 23.2386 60.5398 22.892 59.2898 22.1989C58.0455 21.5 57.0625 20.483 56.3409 19.1477C55.6193 17.8125 55.2585 16.1875 55.2585 14.2727C55.2585 12.3523 55.625 10.7244 56.358 9.3892C57.0909 8.05398 58.0824 7.03977 59.3324 6.34659C60.5824 5.65341 61.983 5.30682 63.5341 5.30682C64.5909 5.30682 65.5682 5.45455 66.4659 5.75C67.3636 6.03977 68.1534 6.46591 68.8352 7.02841C69.517 7.58523 70.071 8.26989 70.4972 9.08239C70.9233 9.89489 71.1875 10.8239 71.2898 11.8693ZM73.7038 23V5.54545H77.9226V19.5739H85.1839V23H73.7038ZM91.5866 5.54545V23H87.3679V5.54545H91.5866ZM103.67 10.7784C103.613 10.1534 103.36 9.66761 102.911 9.32102C102.468 8.96875 101.835 8.79261 101.011 8.79261C100.465 8.79261 100.011 8.86364 99.647 9.00568C99.2834 9.14773 99.0107 9.34375 98.8288 9.59375C98.647 9.83807 98.5533 10.1193 98.5476 10.4375C98.5362 10.6989 98.5874 10.929 98.701 11.1278C98.8203 11.3267 98.9908 11.5028 99.2124 11.6562C99.4396 11.804 99.7124 11.9347 100.031 12.0483C100.349 12.1619 100.707 12.2614 101.104 12.3466L102.604 12.6875C103.468 12.875 104.229 13.125 104.888 13.4375C105.553 13.75 106.11 14.1222 106.559 14.554C107.013 14.9858 107.357 15.483 107.59 16.0455C107.823 16.608 107.942 17.2386 107.948 17.9375C107.942 19.0398 107.664 19.9858 107.113 20.7756C106.562 21.5653 105.769 22.1705 104.735 22.5909C103.707 23.0114 102.465 23.2216 101.011 23.2216C99.5504 23.2216 98.2777 23.0028 97.1925 22.5653C96.1072 22.1278 95.2635 21.4631 94.6612 20.571C94.0589 19.679 93.7493 18.5511 93.7322 17.1875H97.772C97.8061 17.75 97.9567 18.2188 98.2237 18.5938C98.4908 18.9688 98.8572 19.2528 99.3232 19.446C99.7947 19.6392 100.34 19.7358 100.96 19.7358C101.528 19.7358 102.011 19.6591 102.408 19.5057C102.812 19.3523 103.121 19.1392 103.337 18.8665C103.553 18.5937 103.664 18.2812 103.67 17.929C103.664 17.5994 103.562 17.3182 103.363 17.0852C103.164 16.8466 102.857 16.642 102.442 16.4716C102.033 16.2955 101.511 16.1335 100.874 15.9858L99.0504 15.5597C97.5391 15.2131 96.3487 14.6534 95.4794 13.8807C94.6101 13.1023 94.1783 12.0511 94.1839 10.7273C94.1783 9.64773 94.468 8.7017 95.0533 7.8892C95.6385 7.0767 96.4482 6.44318 97.4822 5.98864C98.5163 5.53409 99.6953 5.30682 101.019 5.30682C102.371 5.30682 103.545 5.53693 104.539 5.99716C105.539 6.4517 106.315 7.09091 106.866 7.91477C107.417 8.73864 107.698 9.69318 107.71 10.7784H103.67ZM109.508 8.97159V5.54545H124.261V8.97159H118.968V23H114.809V8.97159H109.508ZM127.917 23H123.383L129.272 5.54545H134.888L140.778 23H136.244L132.144 9.94318H132.008L127.917 23ZM127.312 16.1307H136.789V19.3352H127.312V16.1307Z" fill="#FF5A70"/>
</svg>
